<?xml version="1.0" encoding="UTF-8" standalone="no"?>
<svg
   width="22"
   height="20"
   version="1.1"
   id="svg4"
   sodipodi:docname="icon-cart2.svg"
   inkscape:version="1.1.1 (3bf5ae0d25, 2021-09-20, custom)"
   xmlns:inkscape="http://www.inkscape.org/namespaces/inkscape"
   xmlns:sodipodi="http://sodipodi.sourceforge.net/DTD/sodipodi-0.dtd"
   xmlns="http://www.w3.org/2000/svg"
   xmlns:svg="http://www.w3.org/2000/svg">
  <defs
     id="defs8" />
  <sodipodi:namedview
     id="namedview6"
     pagecolor="#ffffff"
     bordercolor="#666666"
     borderopacity="1.0"
     inkscape:pageshadow="2"
     inkscape:pageopacity="0.0"
     inkscape:pagecheckerboard="0"
     showgrid="false"
     inkscape:zoom="31.5"
     inkscape:cx="11"
     inkscape:cy="9.984127"
     inkscape:window-width="1920"
     inkscape:window-height="990"
     inkscape:window-x="0"
     inkscape:window-y="0"
     inkscape:window-maximized="1"
     inkscape:current-layer="svg4" />
  <path
     d="M20.925 3.641H3.863L3.61.816A.896.896 0 0 0 2.717 0H.897a.896.896 0 1 0 0 1.792h1l1.031 11.483c.073.828.52 1.726 1.291 2.336C2.83 17.385 4.099 20 6.359 20c1.875 0 3.197-1.87 2.554-3.642h4.905c-.642 1.77.677 3.642 2.555 3.642a2.72 2.72 0 0 0 2.717-2.717 2.72 2.72 0 0 0-2.717-2.717H6.365c-.681 0-1.274-.41-1.53-1.009l14.321-.842a.896.896 0 0 0 .817-.677l1.821-7.283a.897.897 0 0 0-.87-1.114ZM6.358 18.208a.926.926 0 0 1 0-1.85.926.926 0 0 1 0 1.85Zm10.015 0a.926.926 0 0 1 0-1.85.926.926 0 0 1 0 1.85Zm2.021-7.243-13.8.81-.57-6.341h15.753l-1.383 5.53Z"
     fill="#69707D"
     fill-rule="nonzero"
     id="path2" />
  <path
     style="fill:#ffffff;stroke-width:0.031746"
     d="m 5.8466394,19.933509 c -0.9592553,-0.173331 -1.7419797,-0.885704 -2.072134,-1.88589 -0.082423,-0.249697 -0.089136,-0.307759 -0.08993,-0.777778 -8.318e-4,-0.492028 0.00237,-0.517247 0.1023447,-0.805234 0.09792,-0.282081 0.2562162,-0.590399 0.3912791,-0.762104 l 0.06144,-0.07811 -0.2971273,-0.304262 C 3.7790914,15.15279 3.5878257,14.930159 3.5174768,14.825397 3.2374356,14.408367 3.0302706,13.884555 2.966497,13.432257 2.9361354,13.216925 1.9206349,1.9420901 1.9206349,1.8203251 c 0,-0.054696 -0.038961,-0.05844 -0.6111111,-0.058731 C 0.73587917,1.7613035 0.68868114,1.756737 0.53968254,1.6871097 0.32992644,1.5890903 0.15628585,1.4046512 0.0788085,1.1975744 -0.04716792,0.86087229 0.02419657,0.54309121 0.28416895,0.28311883 0.54890876,0.01837902 0.59490403,0.01085322 1.8786365,0.02223012 L 2.952381,0.03174603 3.1269841,0.130231 C 3.3387581,0.24968213 3.4917771,0.44018581 3.553187,0.66083924 3.5783759,0.7513459 3.650121,1.418254 3.7126203,2.1428571 3.77512,2.8674603 3.8338384,3.5066692 3.843106,3.5633213 l 0.01685,0.1030035 8.657323,0.00811 c 8.536392,0.00799 8.659083,0.00898 8.783256,0.070547 0.162114,0.080379 0.336086,0.2550915 0.413047,0.4148039 0.143223,0.2972231 0.165076,0.1876152 -0.838434,4.2052965 -0.508071,2.0341268 -0.947571,3.7529428 -0.976667,3.8195908 -0.07309,0.167417 -0.272795,0.364498 -0.447796,0.441909 -0.135304,0.05985 -0.696893,0.09728 -7.322423,0.488019 -3.9467346,0.232758 -7.2088616,0.423621 -7.2491711,0.42414 l -0.07329,9.43e-4 0.1006657,0.188869 c 0.1285842,0.241248 0.4360026,0.53667 0.6939753,0.666894 0.3957311,0.199765 0.1191501,0.190701 5.8374041,0.191305 5.701704,6.03e-4 5.431504,-0.0078 5.91136,0.182912 0.68335,0.271528 1.254258,0.837832 1.524152,1.511859 0.15319,0.382575 0.200719,0.675442 0.181001,1.115304 -0.01986,0.443058 -0.09139,0.726902 -0.275382,1.092853 -0.805313,1.601687 -2.936503,1.98977 -4.229361,0.770153 -0.386438,-0.364546 -0.675861,-0.850793 -0.806562,-1.355069 -0.104936,-0.40487 -0.07832,-0.979687 0.06946,-1.5 l 0.02029,-0.07143 H 11.365079 8.8973568 l 0.020287,0.07143 c 0.1053254,0.37084 0.1261559,0.515804 0.1265876,0.880952 5.492e-4,0.463161 -0.051255,0.704388 -0.2375397,1.106144 -0.5337942,1.151218 -1.7153015,1.766569 -2.9600523,1.541651 z m 0.9201711,-1.824773 c 0.1533403,-0.07423 0.2949892,-0.222926 0.3992803,-0.419142 0.057748,-0.108648 0.07123,-0.185153 0.071178,-0.40388 -6.35e-5,-0.230897 -0.012305,-0.293162 -0.084882,-0.431429 -0.2887946,-0.550191 -0.9708133,-0.667846 -1.4083159,-0.242948 -0.3587152,0.348379 -0.3681057,0.959498 -0.020282,1.319924 0.2850336,0.295362 0.6657,0.360134 1.0430216,0.177475 z m 10.0020605,0.0062 c 0.548919,-0.283302 0.662706,-1.070951 0.217217,-1.503604 -0.437503,-0.424898 -1.119522,-0.307243 -1.408316,0.242948 -0.07258,0.138267 -0.08483,0.200532 -0.08488,0.431429 -6.4e-5,0.218727 0.01343,0.295232 0.07118,0.40388 0.251923,0.473976 0.7618,0.653985 1.204803,0.425347 z m -5.149823,-6.735139 c 3.631746,-0.210407 6.646114,-0.389074 6.698596,-0.397037 l 0.09542,-0.01448 0.679864,-2.7222384 c 0.373924,-1.4972308 0.686222,-2.7472381 0.693994,-2.7777936 0.01343,-0.052799 -0.377486,-0.055556 -7.87846,-0.055556 -7.4052589,0 -7.892591,0.00333 -7.892591,0.053935 0,0.093052 0.539646,6.115118 0.5579981,6.226863 l 0.017441,0.106195 0.2122803,-0.01867 c 0.1167543,-0.01027 3.1837092,-0.190817 6.8154556,-0.401223 z"
     id="path84" />
</svg>
